Coordinates
version=1
nRows=49
nColumns=12
inDegrees=yes

Units are S.I. units (second, meters, Newtons, ...)
Angles are in degrees

endheader
time	SC_y	SC_z	SC_x	AC_y	AC_z	AC_x	GH_y	GH_z	GH_yy	EL_x	PS_y
       0.0              -37.75          31.71          50.37          41.73         -3.003          12.21          36.63          34.05         -25.34          64.55          112.9
   0.03221              -37.75          31.72          50.38          41.73         -3.001          12.21          36.61          34.05         -25.31          64.54          112.9
   0.06441              -37.75          31.72          50.38          41.73         -2.999          12.21           36.6          34.06         -25.28          64.54          112.9
   0.09662              -37.75          31.72          50.38          41.73         -2.997          12.21          36.58          34.06         -25.25          64.53          112.9
    0.1288              -37.75          31.72          50.39          41.73         -2.994          12.21          36.55          34.07         -25.22          64.52          112.9
     0.161              -37.76          31.72          50.39          41.73         -2.992          12.21          36.53          34.07         -25.18          64.52          112.9
    0.1932              -37.76          31.72           50.4          41.73         -2.989          12.21          36.51          34.08         -25.14          64.51          112.9
    0.2254              -37.76          31.72           50.4          41.73         -2.987          12.22          36.48          34.09          -25.1           64.5          112.9
    0.2576              -37.76          31.72          50.41          41.73         -2.984          12.22          36.45          34.09         -25.05          64.49          112.8
    0.2898              -37.76          31.73          50.41          41.73         -2.981          12.22          36.42           34.1         -25.01          64.48          112.8
    0.3221              -37.76          31.73          50.42          41.74         -2.977          12.22          36.39          34.11         -24.96          64.47          112.8
    0.3543              -37.77          31.73          50.43          41.74         -2.974          12.22          36.35          34.12          -24.9          64.46          112.8
    0.3865              -37.77          31.73          50.43          41.74          -2.97          12.22          36.32          34.13         -24.84          64.45          112.8
    0.4187              -37.77          31.73          50.44          41.74         -2.966          12.23          36.28          34.14         -24.78          64.44          112.8
    0.4509              -37.77          31.74          50.45          41.74         -2.961          12.23          36.23          34.15         -24.71          64.43          112.8
    0.4831              -37.78          31.74          50.46          41.74         -2.956          12.23          36.18          34.16         -24.63          64.41          112.8
    0.5153              -37.78          31.74          50.47          41.74         -2.951          12.23          36.13          34.17         -24.55           64.4          112.7
    0.5475              -37.78          31.74          50.48          41.74         -2.945          12.24          36.08          34.19         -24.46          64.38          112.7
    0.5797              -37.79          31.75          50.49          41.74         -2.939          12.24          36.01           34.2         -24.36          64.36          112.7
    0.6119              -37.79          31.75           50.5          41.75         -2.932          12.24          35.95          34.22         -24.26          64.34          112.7
    0.6441               -37.8          31.75          50.52          41.75         -2.924          12.25          35.87          34.24         -24.14          64.32          112.6
    0.6763               -37.8          31.76          50.53          41.75         -2.915          12.25          35.79          34.26         -24.01          64.29          112.6
    0.7085              -37.81          31.76          50.55          41.75         -2.906          12.26           35.7          34.28         -23.87          64.27          112.6
    0.7407              -37.81          31.77          50.57          41.75         -2.896          12.26           35.6           34.3         -23.71          64.24          112.5
    0.7729              -37.82          31.77          50.59          41.76         -2.884          12.27          35.49          34.33         -23.54           64.2          112.5
    0.8051              -37.83          31.78          50.61          41.76         -2.872          12.27          35.37          34.36         -23.34          64.17          112.5
    0.8373              -37.84          31.79          50.64          41.76         -2.857          12.28          35.23           34.4         -23.12          64.13          112.4
    0.8695              -37.85           31.8          50.67          41.76         -2.841          12.29          35.07          34.44         -22.87          64.08          112.3
    0.9017              -37.86          31.81           50.7          41.77         -2.823           12.3           34.9          34.48          -22.6          64.03          112.3
    0.9339              -37.87          31.82          50.74          41.77         -2.802          12.31           34.7          34.53         -22.28          63.97          112.2
    0.9662              -37.89          31.83          50.78          41.78         -2.778          12.32          34.47          34.59         -21.92           63.9          112.1
    0.9984               -37.9          31.84          50.83          41.78         -2.751          12.33          34.21          34.65         -21.51          63.82          112.0
     1.031              -37.92          31.86          50.89          41.79          -2.72          12.35           33.9          34.73         -21.03          63.73          111.9
     1.063              -37.94          31.87          50.96           41.8         -2.684          12.36          33.55          34.81         -20.47          63.62          111.8
     1.095              -37.97           31.9          51.04          41.81         -2.641          12.39          33.14          34.92         -19.82           63.5          111.7
     1.127               -38.0          31.92          51.13          41.82         -2.591          12.41          32.65          35.04         -19.05          63.35          111.5
     1.159              -38.04          31.95          51.24          41.83         -2.531          12.44          32.08          35.18         -18.14          63.18          111.3
     1.192              -38.08          31.99          51.37          41.85          -2.46          12.48          31.39          35.35         -17.05          62.97          111.0
     1.224              -38.13          32.03          51.53          41.86         -2.373          12.52          30.55          35.56         -15.73          62.72          110.7
     1.256               -38.2          32.08          51.72          41.89         -2.267          12.57          29.53          35.81         -14.12          62.42          110.4
     1.288              -38.28          32.15          51.96          41.91         -2.137          12.63          28.27          36.13         -12.13          62.04          109.9
      1.32              -38.38          32.23          52.26          41.95         -1.974          12.71           26.7          36.52         -9.643          61.57          109.3
     1.353               -38.5          32.33          52.63          41.99         -1.769          12.81          24.72          37.01         -6.515          60.97          108.6
     1.385              -38.66          32.46          53.11          42.05         -1.509          12.94           22.2          37.64         -2.538          60.22          107.7
     1.417              -38.87          32.63          53.72          42.12         -1.175          13.11          18.98          38.44          2.552          59.25          106.6
     1.449              -39.13          32.85           54.5          42.21        -0.7473          13.32          14.84          39.47          9.084          58.02          105.1
     1.481              -39.46          33.12           55.5          42.33        -0.2007          13.59          9.562          40.78          17.43          56.43          103.2
     1.514              -39.88          33.47          56.76          42.47         0.4866          13.92          2.922          42.43          27.92          54.44          100.8
     1.546              -40.39          33.89           58.3          42.65          1.324          14.34          -5.17          44.44           40.7          52.02          97.88
